<?xml version="1.0" encoding="utf-8" ?>
<svg xmlns="http://www.w3.org/2000/svg" xmlns:xlink="http://www.w3.org/1999/xlink" width="1024" height="1024">
	<path transform="scale(2 2)" d="M104.533 185.84C101.528 192.311 96.885 216.18 83.7906 204.664C78.8332 200.305 82.6487 192.323 84.4662 187.381C110.321 117.073 175.863 72.1404 249.84 67.7826C257.191 67.7011 268.238 66.6504 268.853 76.8641C269.221 82.9788 250.108 102.414 245.434 105.281C237.377 110.225 224.242 99.7882 237.547 87.0329C233.781 87.7675 229.938 88.1694 226.16 88.87C172.804 98.7663 126.425 136.354 104.533 185.84Z"/>
	<path transform="scale(2 2)" d="M419.942 229.97C418.301 221.642 417.073 213.32 414.666 205.145C400.672 157.631 363.402 114.878 316.596 97.409C310.931 95.2949 301.732 94.3537 299.976 87.3741C298.499 81.5025 301.697 76.9651 307.493 75.8156C312.368 75.5424 317.02 78.2113 321.448 79.911C391.023 106.616 441.371 176.067 438.857 251.645C438.759 254.579 438.366 257.147 436.079 259.201C428.678 265.85 422.498 257.759 417.694 252.398C413.421 247.789 408.605 243.505 404.54 238.742C396.518 229.344 409.799 217.111 419.942 229.97Z"/>
	<path transform="scale(2 2)" d="M257.573 348.839C231.399 349.945 205.161 337.742 186.81 319.545C125.977 259.222 170.918 153.273 255.33 153.204L255.808 153.194C308.434 152.374 353.405 198.211 353.789 250.213C354.182 303.386 311.013 348.542 257.573 348.839ZM255.33 171.498C186.128 171.896 149.54 257.917 201.357 308.648C215.477 322.473 236.843 330.988 256.564 330.724L257.573 330.705C327.635 330.332 362.139 243.665 309.716 192.797C297.044 180.5 273.572 170.346 255.33 171.498Z"/>
	<path transform="scale(2 2)" d="M246.835 239.652L246.823 213.682C246.821 205.925 244.301 194.418 253.633 191.306C267.2 190.34 264.924 203.249 264.924 212.349L264.911 239.652C269.088 242.493 270.64 245.853 270.194 251.042C274.549 255.252 293.735 273.869 295.83 277.887C300.231 286.326 291.626 292.868 283.671 289.958C279.573 287.646 262.315 269.098 258.211 264.769C242.281 267.547 233.422 251.906 246.835 239.652Z"/>
	<path transform="scale(2 2)" d="M213.732 416.191C214.815 439.539 172.831 415.057 164.929 410.643C110.234 380.086 74.1734 320.231 73.1423 257.522C73.0224 250.228 72.5013 242.015 80.9796 239.652C89.5679 239.515 106.12 258.343 108.839 263.572C113.505 272.546 103.365 279.447 92.867 275.487C94.4067 285.167 96.063 295.477 99.4799 304.722C116.625 351.11 150.36 387.913 197.161 405.491C203.695 407.945 211.824 408.242 213.732 416.191Z"/>
	<path transform="scale(2 2)" d="M274.669 415.358C334.483 408.026 389.702 368.79 409.858 310.8C412.273 303.851 412.743 293.885 421.252 292.044C436.878 291.231 430.255 307.892 427.459 315.835C405.044 379.506 344.673 425.1 278.122 432.943C268.472 434.08 240.997 439.11 242.799 422.84C243.945 418.515 262.641 401.537 266.724 399.03C274.549 394.226 286.925 403.487 274.669 415.358Z"/>
</svg>
